<svg xmlns="http://www.w3.org/2000/svg" width="24" height="24" viewBox="0 0 24 24" fill="currentColor"><path d="M4.39355 11.1436C4.39355 11.1151 4.38223 11.0874 4.3623 11.0674H4.36133C4.34131 11.0475 4.31439 11.0362 4.28613 11.0361H2.57129C2.31569 11.0362 2.07038 11.1376 1.88965 11.3184C1.70892 11.4991 1.60754 11.7445 1.60742 12V14.5723C1.60754 14.8279 1.7089 15.0732 1.88965 15.2539C2.07038 15.4346 2.31569 15.536 2.57129 15.5361H4.28613C4.31436 15.5361 4.34127 15.5248 4.36133 15.5049C4.38153 15.4847 4.39355 15.4571 4.39355 15.4287V11.1436ZM5.89355 15.4287C5.89355 15.8549 5.72405 16.2641 5.42285 16.5654H5.42188C5.12054 16.8666 4.71223 17.0361 4.28613 17.0361H2.57129C1.91789 17.036 1.29116 16.7765 0.829102 16.3145C0.367075 15.8524 0.107537 15.2257 0.107422 14.5723V12C0.107536 11.3467 0.367059 10.7199 0.829102 10.2578C1.29116 9.79575 1.91789 9.53624 2.57129 9.53613H4.28613C4.71233 9.53617 5.12145 9.70534 5.42285 10.0068L5.42188 10.0078C5.72322 10.3092 5.89355 10.7174 5.89355 11.1436V15.4287Z"></path><path d="M18.1074 11.1436C18.1074 10.7174 18.2766 10.3083 18.5781 10.0068L18.6963 9.90039C18.9823 9.66598 19.3419 9.53613 19.7148 9.53613H21.4287C22.0822 9.53613 22.7098 9.79555 23.1719 10.2578L23.1709 10.2588C23.6328 10.7208 23.8934 11.3468 23.8936 12V14.5723C23.8934 15.2256 23.6328 15.8514 23.1709 16.3135L23.1719 16.3145C22.7098 16.7767 22.0822 17.0361 21.4287 17.0361H19.7148C19.2886 17.0361 18.8795 16.8668 18.5781 16.5654C18.2767 16.264 18.1074 15.8549 18.1074 15.4287V11.1436ZM19.6074 15.4287C19.6074 15.457 19.6185 15.4847 19.6387 15.5049C19.6587 15.5249 19.6863 15.5361 19.7148 15.5361H21.4287C21.6844 15.5361 21.9297 15.4345 22.1104 15.2539L22.1748 15.1826C22.3152 15.0112 22.3935 14.7958 22.3936 14.5723V12C22.3934 11.7444 22.2911 11.4991 22.1104 11.3184C21.9297 11.1377 21.6844 11.0361 21.4287 11.0361H19.7148C19.6863 11.0361 19.6586 11.0474 19.6387 11.0674C19.6187 11.0873 19.6074 11.115 19.6074 11.1436V15.4287Z"></path><path d="M18.9648 17.5723V16.2861C18.9648 15.8719 19.3006 15.5361 19.7148 15.5361C20.129 15.5362 20.4648 15.872 20.4648 16.2861V17.5723C20.4647 18.6803 20.0246 19.7428 19.2412 20.5264C18.4576 21.3101 17.3943 21.75 16.2861 21.75C15.8719 21.75 15.5361 21.4142 15.5361 21C15.5364 20.586 15.8721 20.25 16.2861 20.25C16.9965 20.25 17.6775 19.968 18.1797 19.4658C18.6819 18.9636 18.9647 18.2826 18.9648 17.5723Z"></path><path d="M15.5361 21C15.5361 20.6768 15.4237 20.3649 15.2207 20.1172L15.1279 20.0156C14.8666 19.7543 14.5119 19.6074 14.1426 19.6074H11.5713C11.2021 19.6075 10.8481 19.7544 10.5869 20.0156C10.3258 20.2767 10.1788 20.6307 10.1787 21C10.1787 21.3694 10.3257 21.7241 10.5869 21.9854C10.8481 22.2464 11.2021 22.3935 11.5713 22.3936H14.1426C14.512 22.3936 14.8667 22.2465 15.1279 21.9854C15.3892 21.7241 15.5361 21.3694 15.5361 21ZM17.0361 21C17.0361 21.7672 16.731 22.5033 16.1885 23.0459C15.6459 23.5884 14.9097 23.8936 14.1426 23.8936H11.5713C10.8043 23.8935 10.0689 23.5883 9.52637 23.0459C8.98391 22.5034 8.67871 21.7672 8.67871 21C8.6788 20.2329 8.98389 19.4975 9.52637 18.9551C10.0688 18.4127 10.8041 18.1075 11.5713 18.1074H14.1426C14.9099 18.1074 15.646 18.4126 16.1885 18.9551C16.731 19.4975 17.036 20.2331 17.0361 21Z"></path><path d="M18.9648 10.2861V8.57129C18.9647 6.72441 18.2307 4.9534 16.9248 3.64746C15.6188 2.34141 13.847 1.60742 12 1.60742C10.1531 1.60754 8.38212 2.34151 7.07617 3.64746C5.77021 4.95342 5.03624 6.72439 5.03613 8.57129V10.2861C5.03606 10.7003 4.7003 11.0361 4.28613 11.0361C3.87196 11.0361 3.5362 10.7003 3.53613 10.2861V8.57129C3.53624 6.32657 4.42836 4.17418 6.01562 2.58691C7.60288 0.999658 9.75526 0.107544 12 0.107422C14.2448 0.107422 16.398 0.999548 17.9854 2.58691C19.5726 4.17418 20.4647 6.32661 20.4648 8.57129V10.2861C20.4648 10.7002 20.1289 11.036 19.7148 11.0361C19.3007 11.0361 18.9649 10.7003 18.9648 10.2861Z"></path><path d="M8.67871 9.42871V6.85742C8.67871 6.44321 9.0145 6.10742 9.42871 6.10742C9.84292 6.10742 10.1787 6.44321 10.1787 6.85742V9.42871L10.1748 9.50586C10.1362 9.8839 9.81693 10.1787 9.42871 10.1787C9.0405 10.1787 8.72117 9.8839 8.68262 9.50586L8.67871 9.42871Z"></path><path d="M13.8218 9.42871V6.85742C13.8218 6.44321 14.1576 6.10742 14.5718 6.10742C14.986 6.10742 15.3218 6.44321 15.3218 6.85742V9.42871L15.3179 9.50586C15.2793 9.8839 14.96 10.1787 14.5718 10.1787C14.1836 10.1787 13.8642 9.8839 13.8257 9.50586L13.8218 9.42871Z"></path><path d="M8.67871 12.8574C8.67871 12.4432 9.0145 12.1074 9.42871 12.1074C9.84292 12.1074 10.1787 12.4432 10.1787 12.8574C10.1787 13.0933 10.2941 13.3049 10.6143 13.4941C10.9518 13.6936 11.4533 13.8174 12 13.8174C12.5469 13.8174 13.0492 13.6937 13.3867 13.4941C13.7066 13.3049 13.8213 13.0932 13.8213 12.8574C13.8213 12.4433 14.1572 12.1075 14.5713 12.1074C14.9855 12.1074 15.3213 12.4432 15.3213 12.8574C15.3213 13.7615 14.7935 14.4044 14.1494 14.7852C13.5227 15.1556 12.7388 15.3174 12 15.3174C11.2612 15.3174 10.4773 15.1556 9.85059 14.7852C9.20656 14.4044 8.67871 13.7614 8.67871 12.8574Z"></path></svg>