<svg xmlns="http://www.w3.org/2000/svg" width="24" height="24" viewBox="0 0 24 24" fill="currentColor"><mask id="mask0_1331_72" style="mask-type:luminance" maskUnits="userSpaceOnUse" x="0" y="0" width="24" height="24"><path d="M24 0H0V24H24V0Z"></path></mask><path d="M22.3936 12C22.3934 6.26032 17.7397 1.60742 12 1.60742C6.26038 1.60758 1.60755 6.26043 1.60742 12C1.60742 17.7398 6.2603 22.3934 12 22.3936C17.7398 22.3936 22.3936 17.7399 22.3936 12ZM23.8936 12C23.8936 18.5683 18.5682 23.8936 12 23.8936C5.43187 23.8934 0.107422 18.5682 0.107422 12C0.107554 5.432 5.43196 0.107584 12 0.107422C18.5681 0.107422 23.8934 5.4319 23.8936 12Z"></path><path d="M11.25 7.71484C11.25 7.30063 11.5858 6.96484 12 6.96484C12.4142 6.96484 12.75 7.30063 12.75 7.71484V11.7217L16.9238 16.5869C17.1932 16.9013 17.157 17.3749 16.8428 17.6445C16.5285 17.9141 16.0549 17.8776 15.7852 17.5635L11.4307 12.4893C11.3141 12.3534 11.2501 12.18 11.25 12.001V7.71484Z"></path></svg>